<svg width="28" height="28" viewBox="0 0 28 28" fill="none" xmlns="http://www.w3.org/2000/svg">
<path fill-rule="evenodd" clip-rule="evenodd" d="M27.9772 13.7925C27.9772 21.4089 21.7134 27.5832 13.9866 27.5832C6.25988 27.5832 -0.00390625 21.4089 -0.00390625 13.7925C-0.00390625 6.17613 6.25988 0.00183105 13.9866 0.00183105C21.7134 0.00183105 27.9772 6.17613 27.9772 13.7925ZM26.858 13.7925C26.858 20.7996 21.0953 26.48 13.9866 26.48C6.87802 26.48 1.11534 20.7996 1.11534 13.7925C1.11534 6.78544 6.87802 1.10509 13.9866 1.10509C21.0953 1.10509 26.858 6.78544 26.858 13.7925ZM11.7482 11.0344V11.586H12.8674V20.4121H11.7482V20.9637H12.8674H15.1059H16.2251V20.4121H15.1059V11.0344H12.8674H11.7482ZM15.6655 8.27625C15.6655 9.19021 14.9139 9.93113 13.9866 9.93113C13.0594 9.93113 12.3078 9.19021 12.3078 8.27625C12.3078 7.36228 13.0594 6.62136 13.9866 6.62136C14.9139 6.62136 15.6655 7.36228 15.6655 8.27625Z" fill="#2B4074"/>
</svg>
